<?xml version="1.0" encoding="UTF-8"?>
<svg id="_ロゴ" data-name="ロゴ" xmlns="http://www.w3.org/2000/svg" version="1.1" viewBox="0 0 1190.55 841.89">
  <defs>
    <style>
      .cls-1 {
        fill: #323333;
        stroke-width: 0px;
      }
    </style>
  </defs>
  <path class="cls-1" d="M833.08,500.64c-59.84,0-105.24-44-105.24-103.83s45.41-103.83,105.24-103.83,105.24,44,105.24,103.83-45.41,103.83-105.24,103.83ZM833.08,347.53c-27.1,0-46.81,22.88-46.81,49.28s19.71,49.28,46.81,49.28,46.81-22.88,46.81-49.28-19.71-49.28-46.81-49.28Z"/>
  <path class="cls-1" d="M310.66,299.16v97.64c0,26.4,19.71,49.28,46.81,49.28s46.81-22.88,46.81-49.28v-97.64h58.43v97.64c0,59.84-45.41,103.83-105.24,103.83s-105.24-44-105.24-103.83v-97.64h58.43Z"/>
  <path class="cls-1" d="M595.28,292.97c-59.84,0-105.24,44-105.24,103.83s45.41,103.83,105.24,103.83c15.96,0,33.42-6.66,46.81-14.28v14.28c0,26.4-19.71,49.28-46.81,49.28-21.53,0-38.39-14.44-44.41-33.62h-59.75c7.17,51.69,49.68,88.17,104.16,88.17,59.84,0,105.24-44,105.24-103.83v-29.57h0v-74.27c0-59.84-45.41-103.83-105.24-103.83ZM595.28,446.08c-27.1,0-46.81-22.88-46.81-49.28s19.71-49.28,46.81-49.28,46.81,22.88,46.81,49.28-19.71,49.28-46.81,49.28Z"/>
</svg>